<svg xmlns="http://www.w3.org/2000/svg" xmlns:xlink="http://www.w3.org/1999/xlink" width="500" zoomAndPan="magnify" viewBox="0 0 375 374.999991" height="500" preserveAspectRatio="xMidYMid meet" version="1.0"><defs><g/><clipPath id="482e508f99"><path d="M 71.363281 140 L 107.363281 140 L 107.363281 175.820312 L 71.363281 175.820312 Z M 71.363281 140 " clip-rule="nonzero"/></clipPath><clipPath id="4db48169f8"><path d="M 45 165 L 82 165 L 82 201 L 45 201 Z M 45 165 " clip-rule="nonzero"/></clipPath><clipPath id="72aa62c67f"><path d="M 45.167969 200.226562 L 46.453125 165 L 81.679688 166.285156 L 80.394531 201.511719 Z M 45.167969 200.226562 " clip-rule="nonzero"/></clipPath><clipPath id="c7fe60cc81"><path d="M 45.167969 200.226562 L 46.453125 165 L 81.679688 166.285156 L 80.394531 201.511719 Z M 45.167969 200.226562 " clip-rule="nonzero"/></clipPath></defs><g clip-path="url(#482e508f99)"><path fill="#00bdf6" d="M 100.144531 146.324219 L 99.734375 145.921875 L 99.695312 145.878906 C 98.421875 144.5625 98.433594 142.4375 99.734375 141.136719 C 101.035156 139.835938 103.160156 139.820312 104.480469 141.09375 L 104.519531 141.136719 L 104.929688 141.539062 L 106.042969 142.660156 C 107.359375 143.972656 107.359375 146.125 106.042969 147.445312 C 104.730469 148.757812 102.574219 148.757812 101.257812 147.445312 Z M 77.574219 164.839844 L 77.175781 165.234375 L 76.722656 165.691406 L 72.550781 169.863281 C 71.238281 171.175781 71.238281 173.328125 72.550781 174.648438 C 73.871094 175.960938 76.023438 175.960938 77.335938 174.648438 L 84.75 167.234375 C 86.066406 165.917969 86.066406 163.765625 84.75 162.445312 L 82.359375 160.054688 L 81.929688 159.632812 L 77.304688 155.003906 C 75.992188 153.691406 73.839844 153.691406 72.519531 155.003906 C 71.203125 156.320312 71.203125 158.476562 72.519531 159.789062 L 77.144531 164.417969 Z M 105.851562 174.617188 L 105.851562 174.621094 C 104.539062 175.933594 102.382812 175.933594 101.066406 174.621094 L 72.582031 146.128906 C 71.265625 144.816406 71.265625 142.660156 72.582031 141.34375 C 73.898438 140.03125 76.050781 140.03125 77.367188 141.34375 L 105.851562 169.835938 C 107.167969 171.148438 107.167969 173.300781 105.851562 174.617188 Z M 105.894531 160.976562 C 104.578125 162.292969 102.429688 162.292969 101.109375 160.976562 L 90.847656 150.714844 L 86.21875 146.089844 C 84.90625 144.773438 84.90625 142.617188 86.21875 141.304688 C 87.539062 139.988281 89.691406 139.988281 91.007812 141.304688 L 105.894531 156.191406 C 107.210938 157.507812 107.210938 159.664062 105.894531 160.976562 Z M 105.894531 160.976562 " fill-opacity="1" fill-rule="evenodd"/></g><g fill="#ffffff" fill-opacity="1"><g transform="translate(119.784112, 189.959904)"><g><path d="M 3.078125 0 L 3.078125 -35.359375 L 26.484375 -35.359375 L 26.484375 -29.203125 L 10.546875 -29.203125 L 10.546875 -20.765625 L 24.9375 -20.765625 L 24.9375 -14.609375 L 10.546875 -14.609375 L 10.546875 0 Z M 3.078125 0 "/></g></g></g><g fill="#ffffff" fill-opacity="1"><g transform="translate(148.218925, 189.959904)"><g><path d="M 10.546875 -35.359375 L 10.546875 0 L 3.078125 0 L 3.078125 -35.359375 Z M 10.546875 -35.359375 "/></g></g></g><g fill="#ffffff" fill-opacity="1"><g transform="translate(161.857964, 189.959904)"><g><path d="M 1.734375 -29.203125 L 1.734375 -35.359375 L 30.765625 -35.359375 L 30.765625 -29.203125 L 19.9375 -29.203125 L 19.9375 0 L 12.546875 0 L 12.546875 -29.203125 Z M 1.734375 -29.203125 "/></g></g></g><g fill="#ffffff" fill-opacity="1"><g transform="translate(194.349955, 189.959904)"><g><path d="M 3.078125 0 L 3.078125 -35.359375 L 17.03125 -35.359375 C 19.707031 -35.359375 21.988281 -34.847656 23.875 -33.828125 C 25.769531 -32.816406 27.210938 -31.410156 28.203125 -29.609375 C 29.203125 -27.804688 29.703125 -25.726562 29.703125 -23.375 C 29.703125 -21.03125 29.191406 -18.960938 28.171875 -17.171875 C 27.160156 -15.378906 25.695312 -13.976562 23.78125 -12.96875 C 21.863281 -11.96875 19.546875 -11.46875 16.828125 -11.46875 L 10.546875 -11.46875 L 10.546875 0 Z M 10.546875 -17.453125 L 15.625 -17.453125 C 17.769531 -17.453125 19.367188 -18 20.421875 -19.09375 C 21.472656 -20.195312 22 -21.625 22 -23.375 C 22 -25.132812 21.472656 -26.550781 20.421875 -27.625 C 19.367188 -28.707031 17.757812 -29.25 15.59375 -29.25 L 10.546875 -29.25 Z M 10.546875 -17.453125 "/></g></g></g><g fill="#ffffff" fill-opacity="1"><g transform="translate(225.840604, 189.959904)"><g><path d="M 9.171875 0 L 1.15625 0 L 13.359375 -35.359375 L 23 -35.359375 L 35.1875 0 L 27.171875 0 L 24.546875 -8.0625 L 11.796875 -8.0625 Z M 13.6875 -13.90625 L 22.671875 -13.90625 L 18.328125 -27.28125 L 18.046875 -27.28125 Z M 13.6875 -13.90625 "/></g></g></g><g fill="#ffffff" fill-opacity="1"><g transform="translate(262.199871, 189.959904)"><g><path d="M 3.078125 0 L 3.078125 -35.359375 L 10.546875 -35.359375 L 10.546875 -6.171875 L 25.71875 -6.171875 L 25.71875 0 Z M 3.078125 0 "/></g></g></g><g clip-path="url(#4db48169f8)"><g clip-path="url(#72aa62c67f)"><g clip-path="url(#c7fe60cc81)"><path fill="#46b7fa" d="M 52.40625 194.164062 L 52.789062 194.570312 L 52.824219 194.613281 C 54.015625 195.9375 53.925781 198 52.617188 199.21875 C 51.308594 200.4375 49.246094 200.375 48.007812 199.089844 L 47.972656 199.050781 L 47.585938 198.640625 L 46.546875 197.515625 C 45.316406 196.191406 45.390625 194.101562 46.714844 192.867188 C 48.039062 191.640625 50.132812 191.714844 51.363281 193.039062 Z M 74.980469 176.984375 L 75.378906 176.613281 L 75.835938 176.1875 L 80.035156 172.285156 C 81.355469 171.054688 81.433594 168.964844 80.203125 167.636719 C 78.96875 166.316406 76.878906 166.238281 75.554688 167.46875 L 71.355469 171.371094 L 70.898438 171.796875 L 70.5 172.167969 L 68.09375 174.40625 C 66.769531 175.636719 66.695312 177.726562 67.921875 179.054688 L 70.164062 181.460938 L 70.5625 181.886719 L 74.890625 186.542969 C 76.121094 187.867188 78.210938 187.945312 79.539062 186.714844 C 80.863281 185.484375 80.9375 183.390625 79.707031 182.066406 L 75.378906 177.410156 Z M 47.863281 166.492188 L 47.863281 166.484375 C 49.183594 165.257812 51.277344 165.332031 52.507812 166.65625 L 79.164062 195.328125 C 80.398438 196.652344 80.320312 198.746094 78.992188 199.976562 C 77.667969 201.207031 75.582031 201.132812 74.347656 199.808594 L 47.691406 171.132812 C 46.460938 169.808594 46.539062 167.71875 47.863281 166.492188 Z M 47.339844 179.730469 C 48.664062 178.503906 50.753906 178.578125 51.988281 179.902344 L 55.019531 183.167969 L 61.589844 190.230469 L 65.917969 194.886719 C 67.148438 196.210938 67.070312 198.304688 65.75 199.535156 C 64.421875 200.765625 62.332031 200.6875 61.101562 199.363281 L 56.773438 194.707031 L 50.203125 187.644531 L 47.171875 184.378906 C 45.941406 183.054688 46.015625 180.960938 47.339844 179.730469 Z M 47.339844 179.730469 " fill-opacity="1" fill-rule="evenodd"/></g></g></g></svg>