<svg xmlns="http://www.w3.org/2000/svg" xmlns:xlink="http://www.w3.org/1999/xlink" width="500" zoomAndPan="magnify" viewBox="0 0 375 374.999991" height="500" preserveAspectRatio="xMidYMid meet" version="1.0"><defs><g/><clipPath id="e81a513344"><path d="M 71.363281 140 L 107.363281 140 L 107.363281 175.820312 L 71.363281 175.820312 Z M 71.363281 140 " clip-rule="nonzero"/></clipPath><clipPath id="37eddacf8e"><path d="M 45 165 L 82 165 L 82 201 L 45 201 Z M 45 165 " clip-rule="nonzero"/></clipPath><clipPath id="52ac18cedd"><path d="M 45.167969 200.226562 L 46.453125 165 L 81.679688 166.285156 L 80.394531 201.511719 Z M 45.167969 200.226562 " clip-rule="nonzero"/></clipPath><clipPath id="8bb5018989"><path d="M 45.167969 200.226562 L 46.453125 165 L 81.679688 166.285156 L 80.394531 201.511719 Z M 45.167969 200.226562 " clip-rule="nonzero"/></clipPath></defs><g clip-path="url(#e81a513344)"><path fill="#00bdf6" d="M 100.144531 146.324219 L 99.734375 145.921875 L 99.695312 145.878906 C 98.421875 144.5625 98.433594 142.4375 99.734375 141.136719 C 101.035156 139.835938 103.160156 139.820312 104.480469 141.09375 L 104.519531 141.136719 L 104.929688 141.539062 L 106.042969 142.660156 C 107.359375 143.972656 107.359375 146.125 106.042969 147.445312 C 104.730469 148.757812 102.574219 148.757812 101.257812 147.445312 Z M 77.574219 164.839844 L 77.175781 165.234375 L 76.722656 165.691406 L 72.550781 169.863281 C 71.238281 171.175781 71.238281 173.328125 72.550781 174.648438 C 73.871094 175.960938 76.023438 175.960938 77.335938 174.648438 L 84.75 167.234375 C 86.066406 165.917969 86.066406 163.765625 84.75 162.445312 L 82.359375 160.054688 L 81.929688 159.632812 L 77.304688 155.003906 C 75.992188 153.691406 73.839844 153.691406 72.519531 155.003906 C 71.203125 156.320312 71.203125 158.476562 72.519531 159.789062 L 77.144531 164.417969 Z M 105.851562 174.617188 L 105.851562 174.621094 C 104.539062 175.933594 102.382812 175.933594 101.066406 174.621094 L 72.582031 146.128906 C 71.265625 144.816406 71.265625 142.660156 72.582031 141.34375 C 73.898438 140.03125 76.050781 140.03125 77.367188 141.34375 L 105.851562 169.835938 C 107.167969 171.148438 107.167969 173.300781 105.851562 174.617188 Z M 105.894531 160.976562 C 104.578125 162.292969 102.429688 162.292969 101.109375 160.976562 L 90.847656 150.714844 L 86.21875 146.089844 C 84.90625 144.773438 84.90625 142.617188 86.21875 141.304688 C 87.539062 139.988281 89.691406 139.988281 91.007812 141.304688 L 105.894531 156.191406 C 107.210938 157.507812 107.210938 159.664062 105.894531 160.976562 Z M 105.894531 160.976562 " fill-opacity="1" fill-rule="evenodd"/></g><g fill="#ffffff" fill-opacity="1"><g transform="translate(114.519095, 192.773015)"><g><path d="M 3.796875 0 L 3.796875 -43.609375 L 32.671875 -43.609375 L 32.671875 -36.015625 L 13.015625 -36.015625 L 13.015625 -25.625 L 30.75 -25.625 L 30.75 -18.015625 L 13.015625 -18.015625 L 13.015625 0 Z M 3.796875 0 "/></g></g></g><g fill="#ffffff" fill-opacity="1"><g transform="translate(149.591, 192.773015)"><g><path d="M 13.015625 -43.609375 L 13.015625 0 L 3.796875 0 L 3.796875 -43.609375 Z M 13.015625 -43.609375 "/></g></g></g><g fill="#ffffff" fill-opacity="1"><g transform="translate(166.413585, 192.773015)"><g><path d="M 2.125 -36.015625 L 2.125 -43.609375 L 37.953125 -43.609375 L 37.953125 -36.015625 L 24.59375 -36.015625 L 24.59375 0 L 15.484375 0 L 15.484375 -36.015625 Z M 2.125 -36.015625 "/></g></g></g><g fill="#ffffff" fill-opacity="1"><g transform="translate(206.48967, 192.773015)"><g><path d="M 3.796875 0 L 3.796875 -43.609375 L 21 -43.609375 C 24.300781 -43.609375 27.113281 -42.976562 29.4375 -41.71875 C 31.769531 -40.46875 33.550781 -38.726562 34.78125 -36.5 C 36.007812 -34.28125 36.625 -31.722656 36.625 -28.828125 C 36.625 -25.929688 36 -23.378906 34.75 -21.171875 C 33.5 -18.960938 31.691406 -17.238281 29.328125 -16 C 26.972656 -14.757812 24.117188 -14.140625 20.765625 -14.140625 L 13.015625 -14.140625 L 13.015625 0 Z M 13.015625 -21.53125 L 19.265625 -21.53125 C 21.910156 -21.53125 23.878906 -22.207031 25.171875 -23.5625 C 26.472656 -24.914062 27.125 -26.671875 27.125 -28.828125 C 27.125 -31.003906 26.472656 -32.753906 25.171875 -34.078125 C 23.878906 -35.410156 21.898438 -36.078125 19.234375 -36.078125 L 13.015625 -36.078125 Z M 13.015625 -21.53125 "/></g></g></g><g fill="#ffffff" fill-opacity="1"><g transform="translate(245.330686, 192.773015)"><g><path d="M 11.3125 0 L 1.421875 0 L 16.484375 -43.609375 L 28.359375 -43.609375 L 43.40625 0 L 33.515625 0 L 30.28125 -9.9375 L 14.546875 -9.9375 Z M 16.890625 -17.140625 L 27.96875 -17.140625 L 22.59375 -33.640625 L 22.25 -33.640625 Z M 16.890625 -17.140625 "/></g></g></g><g fill="#ffffff" fill-opacity="1"><g transform="translate(290.176726, 192.773015)"><g><path d="M 3.796875 0 L 3.796875 -43.609375 L 13.015625 -43.609375 L 13.015625 -7.609375 L 31.703125 -7.609375 L 31.703125 0 Z M 3.796875 0 "/></g></g></g><g clip-path="url(#37eddacf8e)"><g clip-path="url(#52ac18cedd)"><g clip-path="url(#8bb5018989)"><path fill="#46b7fa" d="M 52.40625 194.164062 L 52.789062 194.570312 L 52.824219 194.613281 C 54.015625 195.9375 53.925781 198 52.617188 199.21875 C 51.308594 200.4375 49.246094 200.375 48.007812 199.089844 L 47.972656 199.050781 L 47.585938 198.640625 L 46.546875 197.515625 C 45.316406 196.191406 45.390625 194.101562 46.714844 192.867188 C 48.039062 191.640625 50.132812 191.714844 51.363281 193.039062 Z M 74.980469 176.984375 L 75.378906 176.613281 L 75.835938 176.1875 L 80.035156 172.285156 C 81.355469 171.054688 81.433594 168.964844 80.203125 167.636719 C 78.96875 166.316406 76.878906 166.238281 75.554688 167.46875 L 71.355469 171.371094 L 70.898438 171.796875 L 70.5 172.167969 L 68.09375 174.40625 C 66.769531 175.636719 66.695312 177.726562 67.921875 179.054688 L 70.164062 181.460938 L 70.5625 181.886719 L 74.890625 186.542969 C 76.121094 187.867188 78.210938 187.945312 79.539062 186.714844 C 80.863281 185.484375 80.9375 183.390625 79.707031 182.066406 L 75.378906 177.410156 Z M 47.863281 166.492188 L 47.863281 166.484375 C 49.183594 165.257812 51.277344 165.332031 52.507812 166.65625 L 79.164062 195.328125 C 80.398438 196.652344 80.320312 198.746094 78.992188 199.976562 C 77.667969 201.207031 75.582031 201.132812 74.347656 199.808594 L 47.691406 171.132812 C 46.460938 169.808594 46.539062 167.71875 47.863281 166.492188 Z M 47.339844 179.730469 C 48.664062 178.503906 50.753906 178.578125 51.988281 179.902344 L 55.019531 183.167969 L 61.589844 190.230469 L 65.917969 194.886719 C 67.148438 196.210938 67.070312 198.304688 65.75 199.535156 C 64.421875 200.765625 62.332031 200.6875 61.101562 199.363281 L 56.773438 194.707031 L 50.203125 187.644531 L 47.171875 184.378906 C 45.941406 183.054688 46.015625 180.960938 47.339844 179.730469 Z M 47.339844 179.730469 " fill-opacity="1" fill-rule="evenodd"/></g></g></g></svg>