<svg xmlns="http://www.w3.org/2000/svg" xmlns:xlink="http://www.w3.org/1999/xlink" width="500" zoomAndPan="magnify" viewBox="0 0 375 374.999991" height="500" preserveAspectRatio="xMidYMid meet" version="1.0"><defs><g/><clipPath id="9d05739437"><path d="M 77.085938 127 L 131.835938 127 L 131.835938 181 L 77.085938 181 Z M 77.085938 127 " clip-rule="nonzero"/></clipPath><clipPath id="76c9d64221"><path d="M 40 159 L 96 159 L 96 215 L 40 215 Z M 40 159 " clip-rule="nonzero"/></clipPath><clipPath id="78a9f279de"><path d="M 39.386719 213.914062 L 41.382812 159.203125 L 96.097656 161.195312 L 94.101562 215.910156 Z M 39.386719 213.914062 " clip-rule="nonzero"/></clipPath><clipPath id="44b3ce0a7d"><path d="M 39.386719 213.914062 L 41.382812 159.203125 L 96.097656 161.195312 L 94.101562 215.910156 Z M 39.386719 213.914062 " clip-rule="nonzero"/></clipPath></defs><g clip-path="url(#9d05739437)"><path fill="#00bdf6" d="M 120.914062 136.46875 L 120.292969 135.855469 L 120.230469 135.796875 C 118.300781 133.796875 118.320312 130.578125 120.292969 128.609375 C 122.261719 126.636719 125.480469 126.617188 127.476562 128.546875 L 127.539062 128.609375 L 128.160156 129.222656 L 129.847656 130.917969 C 131.835938 132.910156 131.835938 136.167969 129.847656 138.164062 C 127.855469 140.15625 124.589844 140.15625 122.601562 138.164062 Z M 86.730469 164.511719 L 86.132812 165.113281 L 85.441406 165.800781 L 79.125 172.121094 C 77.136719 174.109375 77.136719 177.371094 79.125 179.367188 C 81.125 181.359375 84.382812 181.359375 86.375 179.367188 L 92.691406 173.050781 L 93.378906 172.359375 L 97.601562 168.136719 C 99.59375 166.144531 99.59375 162.886719 97.601562 160.886719 L 93.976562 157.265625 L 93.332031 156.625 L 86.324219 149.617188 C 84.335938 147.625 81.074219 147.625 79.078125 149.617188 C 77.085938 151.609375 77.085938 154.875 79.078125 156.863281 L 86.082031 163.871094 Z M 129.558594 179.320312 L 129.558594 179.324219 C 127.566406 181.316406 124.300781 181.316406 122.3125 179.324219 L 79.175781 136.175781 C 77.175781 134.183594 77.175781 130.917969 79.175781 128.925781 C 81.164062 126.933594 84.421875 126.933594 86.421875 128.925781 L 129.558594 172.078125 C 131.546875 174.070312 131.546875 177.328125 129.558594 179.320312 Z M 129.621094 158.664062 C 127.628906 160.652344 124.371094 160.652344 122.371094 158.664062 L 117.460938 153.75 L 106.832031 143.121094 L 99.828125 136.113281 C 97.835938 134.121094 97.835938 130.855469 99.828125 128.863281 C 101.824219 126.871094 105.082031 126.871094 107.074219 128.863281 L 114.078125 135.871094 L 124.707031 146.503906 L 129.621094 151.414062 C 131.609375 153.40625 131.609375 156.671875 129.621094 158.664062 Z M 129.621094 158.664062 " fill-opacity="1" fill-rule="evenodd"/></g><g fill="#ffffff" fill-opacity="1"><g transform="translate(145.445035, 193.803279)"><g><path d="M 2.84375 0 L 2.84375 -29.265625 L 21.75 -29.265625 L 21.75 -24.96875 L 8.1875 -24.96875 L 8.1875 -16.765625 L 19.15625 -16.765625 L 19.15625 -12.546875 L 8.1875 -12.546875 L 8.1875 0 Z M 2.84375 0 "/></g></g></g><g fill="#ffffff" fill-opacity="1"><g transform="translate(174.959407, 193.803279)"><g><path d="M 2.84375 0 L 2.84375 -29.265625 L 8.1875 -29.265625 L 8.1875 0 Z M 2.84375 0 "/></g></g></g><g fill="#ffffff" fill-opacity="1"><g transform="translate(192.477372, 193.803279)"><g><path d="M 9.65625 0 L 9.65625 -24.96875 L 1.125 -24.96875 L 1.125 -29.265625 L 23.578125 -29.265625 L 23.578125 -24.96875 L 15.015625 -24.96875 L 15.015625 0 Z M 9.65625 0 "/></g></g></g><g fill="#ffffff" fill-opacity="1"><g transform="translate(223.66372, 193.803279)"><g><path d="M 2.84375 0 L 2.84375 -29.265625 L 13.671875 -29.265625 C 16.015625 -29.265625 17.953125 -28.875 19.484375 -28.09375 C 21.015625 -27.3125 22.15625 -26.238281 22.90625 -24.875 C 23.664062 -23.507812 24.046875 -21.976562 24.046875 -20.28125 C 24.046875 -18.664062 23.679688 -17.179688 22.953125 -15.828125 C 22.234375 -14.472656 21.101562 -13.382812 19.5625 -12.5625 C 18.03125 -11.738281 16.066406 -11.328125 13.671875 -11.328125 L 8.1875 -11.328125 L 8.1875 0 Z M 8.1875 -15.671875 L 13.34375 -15.671875 C 15.207031 -15.671875 16.550781 -16.082031 17.375 -16.90625 C 18.195312 -17.726562 18.609375 -18.851562 18.609375 -20.28125 C 18.609375 -21.726562 18.195312 -22.863281 17.375 -23.6875 C 16.550781 -24.507812 15.207031 -24.921875 13.34375 -24.921875 L 8.1875 -24.921875 Z M 8.1875 -15.671875 "/></g></g></g><g fill="#ffffff" fill-opacity="1"><g transform="translate(255.518839, 193.803279)"><g><path d="M 0.96875 0 L 11.671875 -29.265625 L 17.6875 -29.265625 L 28.390625 0 L 22.703125 0 L 20.359375 -6.78125 L 8.953125 -6.78125 L 6.5625 0 Z M 10.40625 -10.953125 L 18.90625 -10.953125 L 14.640625 -23.125 Z M 10.40625 -10.953125 "/></g></g></g><g fill="#ffffff" fill-opacity="1"><g transform="translate(291.303087, 193.803279)"><g><path d="M 2.84375 0 L 2.84375 -29.265625 L 8.1875 -29.265625 L 8.1875 -4.1875 L 21.15625 -4.1875 L 21.15625 0 Z M 2.84375 0 "/></g></g></g><g clip-path="url(#76c9d64221)"><g clip-path="url(#78a9f279de)"><g clip-path="url(#44b3ce0a7d)"><path fill="#46b7fa" d="M 50.667969 204.464844 L 51.261719 205.101562 L 51.324219 205.164062 C 53.175781 207.234375 53.039062 210.449219 51 212.347656 C 48.957031 214.242188 45.742188 214.148438 43.816406 212.144531 L 43.757812 212.082031 L 43.160156 211.445312 L 41.535156 209.691406 C 39.617188 207.628906 39.738281 204.371094 41.800781 202.445312 C 43.863281 200.527344 47.125 200.648438 49.042969 202.710938 Z M 85.84375 177.683594 L 86.464844 177.105469 L 87.179688 176.441406 L 93.722656 170.355469 C 95.78125 168.4375 95.902344 165.183594 93.984375 163.113281 C 92.0625 161.050781 88.804688 160.929688 86.742188 162.847656 L 80.199219 168.933594 L 79.488281 169.597656 L 78.867188 170.175781 L 75.113281 173.664062 C 73.050781 175.582031 72.933594 178.839844 74.851562 180.910156 L 78.339844 184.664062 L 78.960938 185.328125 L 85.707031 192.585938 C 87.625 194.648438 90.878906 194.765625 92.949219 192.851562 C 95.011719 190.933594 95.128906 187.667969 93.214844 185.605469 L 86.46875 178.347656 Z M 43.589844 161.324219 L 43.589844 161.316406 C 45.652344 159.398438 48.914062 159.519531 50.832031 161.582031 L 92.363281 206.28125 C 94.285156 208.34375 94.167969 211.609375 92.097656 213.527344 C 90.039062 215.445312 86.78125 215.324219 84.859375 213.261719 L 43.324219 168.5625 C 41.40625 166.5 41.527344 163.242188 43.589844 161.324219 Z M 42.773438 181.96875 C 44.835938 180.050781 48.089844 180.167969 50.015625 182.230469 L 54.746094 187.320312 L 64.980469 198.332031 L 71.722656 205.59375 C 73.640625 207.65625 73.523438 210.917969 71.460938 212.835938 C 69.390625 214.753906 66.136719 214.636719 64.21875 212.574219 L 57.472656 205.3125 L 47.238281 194.300781 L 42.507812 189.210938 C 40.59375 187.148438 40.710938 183.882812 42.773438 181.96875 Z M 42.773438 181.96875 " fill-opacity="1" fill-rule="evenodd"/></g></g></g></svg>